<mxfile host="app.diagrams.net" modified="2024-05-12T13:25:51.401Z" agent="Mozilla/5.0 (Windows NT 10.0; Win64; x64) AppleWebKit/537.36 (KHTML, like Gecko) Chrome/124.0.0.0 Safari/537.36" etag="p3A8PjgE0_uU4-_7_psw" version="24.4.0" type="device">
  <diagram name="Page-1" id="eQo4dBpu7imuqNBILiyK">
    <mxGraphModel dx="1760" dy="920" grid="1" gridSize="10" guides="1" tooltips="1" connect="1" arrows="1" fold="1" page="1" pageScale="1" pageWidth="850" pageHeight="1100" math="0" shadow="0">
      <root>
        <mxCell id="0" />
        <mxCell id="1" parent="0" />
        <mxCell id="FfAdsBN1QW3UXwB8XTIg-1" value="" style="rounded=0;whiteSpace=wrap;html=1;fillColor=none;" vertex="1" parent="1">
          <mxGeometry x="200" y="50" width="300" height="400" as="geometry" />
        </mxCell>
        <mxCell id="FfAdsBN1QW3UXwB8XTIg-4" value="" style="rounded=0;whiteSpace=wrap;html=1;fillColor=none;" vertex="1" parent="1">
          <mxGeometry x="500" y="50" width="300" height="400" as="geometry" />
        </mxCell>
        <mxCell id="FfAdsBN1QW3UXwB8XTIg-5" value="" style="rounded=0;whiteSpace=wrap;html=1;fillColor=none;" vertex="1" parent="1">
          <mxGeometry x="800" y="50" width="300" height="400" as="geometry" />
        </mxCell>
        <mxCell id="FfAdsBN1QW3UXwB8XTIg-6" value="" style="rounded=0;whiteSpace=wrap;html=1;fillColor=none;" vertex="1" parent="1">
          <mxGeometry x="1400" y="50" width="300" height="400" as="geometry" />
        </mxCell>
        <mxCell id="FfAdsBN1QW3UXwB8XTIg-7" value="" style="rounded=0;whiteSpace=wrap;html=1;fillColor=none;" vertex="1" parent="1">
          <mxGeometry x="1100" y="50" width="300" height="400" as="geometry" />
        </mxCell>
      </root>
    </mxGraphModel>
  </diagram>
</mxfile>
